<svg xmlns="http://www.w3.org/2000/svg" xmlns:xlink="http://www.w3.org/1999/xlink" version="1.1" width="256" height="256" viewBox="0 0 256 256" xml:space="preserve">

<defs>
</defs>
<g style="stroke: none; stroke-width: 0; stroke-dasharray: none; stroke-linecap: butt; stroke-linejoin: miter; stroke-miterlimit: 10; fill: none; fill-rule: nonzero; opacity: 1;" transform="translate(1.4065934065934016 1.4065934065934016) scale(2.81 2.81)" >
	<path d="M 58.122 10.177 C 70.73 1.207 82.606 -2.411 88.305 1.667 c 4.078 5.699 0.46 17.576 -8.51 30.183 L 58.122 10.177 z" style="stroke: none; stroke-width: 1; stroke-dasharray: none; stroke-linecap: butt; stroke-linejoin: miter; stroke-miterlimit: 10; fill: rgb(255,255,255); fill-rule: nonzero; opacity: 1;" transform=" matrix(1 0 0 1 0 0) " stroke-linecap="round" />
	<path d="M 33.179 67.566 c -2.486 8.343 -15.556 7.908 -25.958 15.244 c 7.336 -10.402 6.899 -23.473 15.242 -25.96 L 33.179 67.566 z" style="stroke: none; stroke-width: 1; stroke-dasharray: none; stroke-linecap: butt; stroke-linejoin: miter; stroke-miterlimit: 10; fill: rgb(255,255,255); fill-rule: nonzero; opacity: 1;" transform=" matrix(1 0 0 1 0 0) " stroke-linecap="round" />
	<path d="M 43.722 71.586 c 5.152 -2.668 10.677 -6.424 16.17 -11.053 c 0.02 -0.009 0.04 -0.02 0.06 -0.029 L 56.24 79.708 c -0.156 0.806 -0.549 1.547 -1.13 2.128 l -7.769 7.769 c -0.811 0.811 -2.199 0.298 -2.287 -0.845 L 43.722 71.586 L 43.722 71.586 L 43.722 71.586 z" style="stroke: none; stroke-width: 1; stroke-dasharray: none; stroke-linecap: butt; stroke-linejoin: miter; stroke-miterlimit: 10; fill: rgb(255,255,255); fill-rule: nonzero; opacity: 1;" transform=" matrix(1 0 0 1 0 0) " stroke-linecap="round" />
	<path d="M 10.32 33.788 l 18.986 -3.67 c -4.593 5.463 -8.322 10.955 -10.975 16.077 l 0.111 0.111 l 0 0 L 1.268 44.974 c -1.143 -0.089 -1.656 -1.477 -0.845 -2.287 l 7.769 -7.769 C 8.772 34.337 9.513 33.944 10.32 33.788 z" style="stroke: none; stroke-width: 1; stroke-dasharray: none; stroke-linecap: butt; stroke-linejoin: miter; stroke-miterlimit: 10; fill: rgb(255,255,255); fill-rule: nonzero; opacity: 1;" transform=" matrix(1 0 0 1 0 0) " stroke-linecap="round" />
	<path d="M 54.643 13.221 l 22.053 22.053 c -3.471 5.094 -7.801 10.336 -12.857 15.392 c -7.759 7.759 -15.957 13.816 -23.379 17.659 L 21.592 49.456 c 3.843 -7.422 9.9 -15.621 17.659 -23.379 C 44.307 21.021 49.55 16.691 54.643 13.221 z M 48.891 41.026 c 2.646 2.646 6.935 2.646 9.581 0 c 2.646 -2.646 2.646 -6.935 0 -9.581 c -2.646 -2.646 -6.935 -2.646 -9.581 0 C 46.245 34.091 46.245 38.38 48.891 41.026 z" style="stroke: none; stroke-width: 1; stroke-dasharray: none; stroke-linecap: butt; stroke-linejoin: miter; stroke-miterlimit: 10; fill: rgb(255,255,255); fill-rule: nonzero; opacity: 1;" transform=" matrix(1 0 0 1 0 0) " stroke-linecap="round" />
</g>
</svg>